<svg xmlns="http://www.w3.org/2000/svg" id="Layer_1" data-name="Layer 1" viewBox="0 0 8301.34 1536.82"><defs><style>.cls-1{fill:#e1251b;}.cls-2{fill:#101820;}</style></defs><path class="cls-1" d="M3413.77,1019.07h64.78V861.24H3227.66v26.11c-36.56-25.05-80.5-38.66-135.89-38.66-136.94,0-254,111.83-254,266.55s117.06,267.61,254,267.61c55.39,0,99.33-14.67,135.89-39.72v29.22h250.89V1214.52h-64.78Zm-282.28,212.17c-62.72,0-110.78-50.17-110.78-116s48.06-116,110.78-116c31.39,0,62.72,8.33,96.17,36.56v158.88c-33.45,28.23-64.78,36.56-96.17,36.56m601-427.5c60.61,0,110.83-46,110.83-106.61,0-61.72-50.22-107.67-110.83-107.67-61.67,0-111.83,45.95-111.83,107.67,0,60.61,50.16,106.61,111.83,106.61m160.95,410.78h-64.78V861.24H3576.72v157.83h65.83v195.45h-65.83v157.83h316.67Zm551.78-361.67c-94.11,0-154.72,27.17-202.78,61.67V861.24H3990.45v157.83h65.89v195.45h-65.89v157.83H4349V1214.52H4242.39V1065.07c48.06-10.49,107.67-19.88,202.78-21.94Z" transform="translate(-213.66 -152.09)"></path><path class="cls-1" d="M6655.84,848.71c-165.17,0-283.28,113.94-283.28,267.55,0,154.72,118.11,271.78,283.28,271.78,164.11,0,282.22-117.06,282.22-271.78,0-153.61-118.11-267.55-282.22-267.55m0,381.5C6591,1230.21,6545,1179,6545,1117.32c0-60.61,46-110.78,110.83-110.78,63.77,0,109.77,50.17,109.77,110.78,0,61.67-46,112.89-109.77,112.89m565.5-381.5c-165.17,0-283.28,113.94-283.28,267.55,0,154.72,118.11,271.78,283.28,271.78,164.11,0,282.22-117.06,282.22-271.78,0-153.61-118.11-267.55-282.22-267.55m0,381.5c-64.83,0-110.83-51.22-110.83-112.89,0-60.61,46-110.78,110.83-110.78,63.78,0,109.72,50.17,109.72,110.78,0,61.67-45.94,112.89-109.72,112.89" transform="translate(-213.66 -152.09)"></path><path class="cls-2" d="M8434.08,1214.78c-44,0-80.92,33.66-80.92,79,0,45,36.92,78.6,80.92,78.6s80.92-33.6,80.92-78.6c0-45.31-36.87-79-80.92-79m-.32,143.75c-34.92,0-65.09-28.91-65.09-64.78,0-36.24,30.17-65.41,65.09-65.41s65.42,29.17,65.42,65.41c0,35.87-30.44,64.78-65.42,64.78m29.81-45.68-7.12-10.66c7.43-4.22,12-11.34,12-21.1,0-15.82-12.29-26.16-29.49-26.16h-41.72v14.5h10.34v43.42h-10.34v14.56h27.16v-21.05h17.52l5.17,8.44v12.61h27.8v-14.56Zm-39.2-21.68v-20.42h14.56c7.18,0,12.35,4.22,12.35,10,0,6.49-5.17,10.4-12.35,10.4Z" transform="translate(-213.66 -152.09)"></path><polygon class="cls-1" points="2478.72 667.33 2551.88 667.33 2551.88 509.5 2212.16 509.5 2212.16 667.33 2285.33 667.33 2285.33 789.61 2015.66 789.61 2015.66 667.33 2088.83 667.33 2088.83 509.5 1749.11 509.5 1749.11 667.33 1822.27 667.33 1822.27 1062.44 1749.11 1062.44 1749.11 1220.27 2088.83 1220.27 2088.83 1062.44 2015.66 1062.44 2015.66 953.72 2285.33 953.72 2285.33 1062.44 2212.16 1062.44 2212.16 1220.27 2551.88 1220.27 2551.88 1062.44 2478.72 1062.44 2478.72 667.33"></polygon><path class="cls-1" d="M4846.36,922.92c-48-8.38-75.22-24-75.22-59.61,0-38.66,31.33-58.55,83.61-58.55,71.06,0,112.89,36.61,135.89,79.44h179.78V661.59H5013.64v44.95c-52.28-44.95-123.33-60.67-191.28-60.67-154.72,0-268.67,81.55-268.67,230,0,112.89,65.84,182.94,207,209.05l138,28.23c56.44,10.44,70,35.55,70,58.55,0,29.28-29.27,50.17-85.72,50.17-79.44,0-128.55-29.28-167.27-87.83H4546.36v238.33h162.06V1317c49.11,46,119.16,71.11,208,71.11,162,0,263.44-85.78,263.44-230,0-123.33-75.28-182.94-200.72-208ZM5826.7,1019h64.78V861.2H5640.65v26.17c-36.61-25.11-80.5-38.67-135.89-38.67-136.94,0-254.06,111.83-254.06,266.56s117.12,267.55,254.06,267.55c55.39,0,99.28-14.61,135.89-39.72v29.28h250.83V1214.53H5826.7Zm-282.22,212.22c-62.72,0-110.83-50.17-110.83-116s48.11-116.06,110.83-116.06c31.34,0,62.72,8.39,96.17,36.61V1194.7c-33.45,28.22-64.83,36.56-96.17,36.56m768.07-16.73h-64.84V630.2H5995.77V788h65.89v426.49h-65.89v157.84h316.78Zm1945.06,0h-64.83V1073.42c0-143.22-87.78-227.88-214.28-227.88-52.28,0-95.11,16.72-135.89,50.16V861.2H7590.72V1019h65.83v195.49h-65.83v157.84h316.72V1214.53h-64.83v-163q39.24-40.83,81.55-40.78c47.06,0,82.56,28.22,82.56,96.17v265.5h250.89Z" transform="translate(-213.66 -152.09)"></path><path class="cls-2" d="M1583.33,1505.56c-11.36,36.41-45.58,37.1-77.12,35.78-40.19-1.78-70.81-10.49-98.39-42.49-24.83-28.78-39.28-64.84-56-99.07-19.32-39.62-42.49-78-74-109-49.08-48.1-117.71-67.83-185.31-68.63-2.92,0-11.64.35-23,1.09-13,36-50.69,61.93-95.18,61.93s-82.28-26-95.24-61.93c-11.41-.74-20.07-1.09-23-1.09-67.54.8-136.23,20.53-185.25,68.63-31.48,30.91-54.65,69.33-74,109-16.69,34.23-31.19,70.29-56,99.07-27.58,32-58.2,40.71-98.33,42.49-31.54,1.32-65.77.63-77.12-35.78-20.81,110.38,303.89,355,608.92-8.6,305.09,363.63,629.74,119,609,8.6" transform="translate(-213.66 -152.09)"></path><path class="cls-2" d="M1425.53,995.18s161.46-6,259.57-98.39,33.36-133.65-37.62-121-159-1-159-1,17.89-270-13.14-372.57c-20.58-67.95-142.25-213.64-438.4-244.72s-425,78.15-476.87,148.51-95.46,361.16-95.46,361.16-89-5-155.79-32.11-139,.06-61.92,110.55C357.22,886.76,801,1012.73,1425.53,995.18" transform="translate(-213.66 -152.09)"></path></svg>