<svg xmlns="http://www.w3.org/2000/svg" xmlns:xlink="http://www.w3.org/1999/xlink" id="Layer_1" x="0px" y="0px" viewBox="0 0 432 136" style="enable-background:new 0 0 432 136;" xml:space="preserve"><style type="text/css">	.st0{fill:#E1251B;}	.st1{fill:#101820;}</style><g>	<path class="st0" d="M164.96,61.55c-6.02,0-9.89,1.74-12.97,3.94v-3.41h-16.11v10.09h4.21v12.5h-4.21v10.09h22.92V84.68h-6.82  v-9.56c3.07-0.67,6.88-1.27,12.97-1.4V61.55z M129.68,84.68h-4.14V62.09h-16.11v10.09h4.21v12.5h-4.21v10.09h20.25V84.68z   M119.39,58.41c3.88,0,7.08-2.94,7.08-6.82c0-3.94-3.21-6.88-7.08-6.88c-3.94,0-7.15,2.94-7.15,6.88  C112.24,55.47,115.45,58.41,119.39,58.41 M80.97,85.74c-4.01,0-7.08-3.21-7.08-7.42c0-4.21,3.07-7.42,7.08-7.42  c2,0,4.01,0.53,6.15,2.34v10.16C84.98,85.21,82.98,85.74,80.97,85.74 M99.02,72.18h4.14V62.09H87.12v1.67  c-2.34-1.6-5.15-2.47-8.69-2.47c-8.75,0-16.24,7.15-16.24,17.04s7.48,17.11,16.24,17.11c3.54,0,6.35-0.94,8.69-2.54v1.87h16.04  V84.68h-4.14V72.18z"></path>	<path class="st1" d="M360.16,117.57c-0.67,2.14-2.68,2.18-4.54,2.1c-2.36-0.1-4.17-0.62-5.79-2.5c-1.46-1.69-2.31-3.81-3.29-5.83  c-1.14-2.33-2.5-4.59-4.35-6.41c-2.89-2.83-6.92-3.99-10.9-4.04c-0.17,0-0.69,0.02-1.35,0.06c-0.76,2.11-2.98,3.64-5.6,3.64  c-2.62,0-4.84-1.53-5.6-3.64c-0.67-0.05-1.18-0.07-1.36-0.06c-3.97,0.05-8.01,1.2-10.9,4.04c-1.85,1.82-3.21,4.08-4.35,6.41  c-0.98,2.01-1.83,4.13-3.3,5.83c-1.62,1.88-3.42,2.4-5.78,2.5c-1.85,0.08-3.87,0.04-4.54-2.1c-1.22,6.49,17.87,20.88,35.82-0.51  C342.29,138.45,361.38,124.06,360.16,117.57"></path>	<path class="st1" d="M350.88,57.96c0,0,9.5-0.35,15.27-5.79c5.77-5.43,1.97-7.86-2.21-7.12c-4.18,0.74-9.36-0.06-9.36-0.06  s1.05-15.88-0.77-21.92c-1.21-4-8.37-12.57-25.79-14.4c-17.42-1.83-25,4.6-28.05,8.74c-3.05,4.14-5.62,21.24-5.62,21.24  s-5.23-0.29-9.16-1.89c-3.93-1.6-8.17,0-3.64,6.5C288.04,51.58,314.14,58.99,350.88,57.96"></path>	<path class="st0" d="M342.45,85.68c-4.14,0-7.08-3.27-7.08-7.22c0-3.88,2.94-7.08,7.08-7.08c4.08,0,7.02,3.21,7.02,7.08  C349.47,82.4,346.53,85.68,342.45,85.68 M342.45,61.28c-10.56,0-18.11,7.28-18.11,17.11c0,9.89,7.55,17.38,18.11,17.38  c10.49,0,18.04-7.49,18.04-17.38C360.5,68.57,352.94,61.28,342.45,61.28 M306.3,85.68c-4.14,0-7.08-3.27-7.08-7.22  c0-3.88,2.94-7.08,7.08-7.08c4.08,0,7.02,3.21,7.02,7.08C313.32,82.4,310.37,85.68,306.3,85.68 M306.3,61.28  c-10.56,0-18.11,7.28-18.11,17.11c0,9.89,7.55,17.38,18.11,17.38c10.49,0,18.04-7.49,18.04-17.38  C324.34,68.57,316.79,61.28,306.3,61.28"></path>	<g>		<path class="st1" d="M419.37,89.57v-1.31h0.93c0.46,0,0.79,0.27,0.79,0.64c0,0.41-0.33,0.66-0.79,0.66H419.37z M421.87,90.96   l-0.46-0.68c0.48-0.27,0.77-0.72,0.77-1.35c0-1.01-0.79-1.67-1.88-1.67h-2.67v0.93h0.66v2.78h-0.66v0.93h1.74v-1.35h0.91h0.21   l0.33,0.54v0.8h1.78v-0.93H421.87z M419.97,93.88c-2.23,0-4.16-1.85-4.16-4.14c0-2.32,1.93-4.18,4.16-4.18   c2.24,0,4.18,1.86,4.18,4.18C424.15,92.04,422.2,93.88,419.97,93.88 M419.99,84.69c-2.81,0-5.17,2.15-5.17,5.05   c0,2.88,2.36,5.03,5.17,5.03c2.81,0,5.17-2.15,5.17-5.03C425.16,86.84,422.8,84.69,419.99,84.69"></path>	</g>	<polygon class="st0" points="52.9,59.41 57.57,59.41 57.57,49.32 35.85,49.32 35.85,59.41 40.53,59.41 40.53,67.23 23.29,67.23   23.29,59.41 27.97,59.41 27.97,49.32 6.25,49.32 6.25,59.41 10.93,59.41 10.93,84.68 6.25,84.68 6.25,94.77 27.97,94.77   27.97,84.68 23.29,84.68 23.29,77.73 40.53,77.73 40.53,84.68 35.85,84.68 35.85,94.77 57.57,94.77 57.57,84.68 52.9,84.68  "></polygon>	<path class="st0" d="M408.71,84.68h-4.14v-9.02c0-9.16-5.61-14.57-13.7-14.57c-3.34,0-6.08,1.07-8.69,3.21v-2.21h-16.11v10.09h4.21  v12.5h-4.21v10.09h20.25V84.68h-4.14V74.25c1.67-1.74,3.41-2.61,5.21-2.61c3.01,0,5.28,1.81,5.28,6.15v16.97h16.04V84.68z   M284.35,84.68h-4.14V47.32H264.1v10.09h4.21v27.27h-4.21v10.09h20.25V84.68z M235.24,85.74c-4.01,0-7.08-3.21-7.08-7.42  c0-4.21,3.07-7.42,7.08-7.42c2,0,4.01,0.53,6.15,2.34v10.16C239.25,85.21,237.25,85.74,235.24,85.74 M253.29,72.18h4.14V62.09  h-16.04v1.67c-2.34-1.6-5.15-2.47-8.69-2.47c-8.75,0-16.24,7.15-16.24,17.04s7.49,17.11,16.24,17.11c3.54,0,6.35-0.94,8.69-2.54  v1.87h16.04V84.68h-4.14V72.18z M190.61,66.03c-3.07-0.53-4.81-1.54-4.81-3.81c0-2.47,2-3.74,5.35-3.74c4.54,0,7.22,2.34,8.69,5.08  h11.5V49.32H201.3v2.87c-3.34-2.87-7.89-3.88-12.23-3.88c-9.89,0-17.18,5.21-17.18,14.7c0,7.22,4.21,11.7,13.23,13.37l8.82,1.81  c3.61,0.67,4.48,2.27,4.48,3.74c0,1.87-1.87,3.21-5.48,3.21c-5.08,0-8.22-1.87-10.69-5.61h-10.83v15.24h10.36v-3.54  c3.14,2.94,7.62,4.54,13.3,4.54c10.36,0,16.84-5.48,16.84-14.7c0-7.89-4.81-11.69-12.83-13.3L190.61,66.03z"></path></g></svg>